<svg width="28" height="28" viewBox="0 0 28 28" fill="none" xmlns="http://www.w3.org/2000/svg">
<path d="M4 5H10C11.0609 5 12.0783 5.42143 12.8284 6.17157C13.5786 6.92172 14 7.93913 14 9V23C14 22.2044 13.6839 21.4413 13.1213 20.8787C12.5587 20.3161 11.7956 20 11 20H4V5Z" stroke="#7CB92D" stroke-width="2" stroke-linecap="round" stroke-linejoin="round"/>
<path d="M24 5H18C16.9391 5 15.9217 5.42143 15.1716 6.17157C14.4214 6.92172 14 7.93913 14 9V23C14 22.2044 14.3161 21.4413 14.8787 20.8787C15.4413 20.3161 16.2044 20 17 20H24V5Z" stroke="#7CB92D" stroke-width="2" stroke-linecap="round" stroke-linejoin="round"/>
</svg>
